<?xml version="1.0" encoding="UTF-8" standalone="no"?>
<!-- Created with Inkscape (http://www.inkscape.org/) -->

<svg
   xmlns:dc="http://purl.org/dc/elements/1.1/"
   xmlns:cc="http://creativecommons.org/ns#"
   xmlns:rdf="http://www.w3.org/1999/02/22-rdf-syntax-ns#"
   xmlns:svg="http://www.w3.org/2000/svg"
   xmlns="http://www.w3.org/2000/svg"
   xmlns:sodipodi="http://sodipodi.sourceforge.net/DTD/sodipodi-0.dtd"
   xmlns:inkscape="http://www.inkscape.org/namespaces/inkscape"
   width="209.45923mm"
   height="161.34016mm"
   viewBox="0 0 209.45923 161.34016"
   version="1.1"
   id="svg3686"
   inkscape:version="0.92.1 r15371"
   sodipodi:docname="sheepL.svg">
  <defs
     id="defs3680">
    <inkscape:perspective
       sodipodi:type="inkscape:persp3d"
       inkscape:vp_x="0 : 148.49999 : 1"
       inkscape:vp_y="0 : 999.99992 : 0"
       inkscape:vp_z="210.00001 : 148.49999 : 1"
       inkscape:persp3d-origin="105 : 98.999992 : 1"
       id="perspective3747" />
  </defs>
  <sodipodi:namedview
     id="base"
     pagecolor="#ffffff"
     bordercolor="#666666"
     borderopacity="1.0"
     inkscape:pageopacity="0.0"
     inkscape:pageshadow="2"
     inkscape:zoom="0.49497475"
     inkscape:cx="315.89219"
     inkscape:cy="244.81693"
     inkscape:document-units="mm"
     inkscape:current-layer="layer1"
     showgrid="false"
     inkscape:window-width="1280"
     inkscape:window-height="657"
     inkscape:window-x="-8"
     inkscape:window-y="-8"
     inkscape:window-maximized="1" />
  <metadata
     id="metadata3683">
    <rdf:RDF>
      <cc:Work
         rdf:about="">
        <dc:format>image/svg+xml</dc:format>
        <dc:type
           rdf:resource="http://purl.org/dc/dcmitype/StillImage" />
        <dc:title></dc:title>
      </cc:Work>
    </rdf:RDF>
  </metadata>
  <g
     inkscape:label="Layer 1"
     inkscape:groupmode="layer"
     id="layer1"
     transform="translate(-7.7248977e-8,-135.65983)">
    <g
       id="g3979"
       transform="matrix(1.2481077,0,0,1.2481077,-7.5480793,-52.930743)">
      <g
         transform="translate(0,2.2678571)"
         id="g3871">
        <g
           id="g3830"
           transform="translate(93.738096,3.7797619)">
          <ellipse
             ry="15.119047"
             rx="21.166666"
             cy="200.99405"
             cx="-66.523811"
             id="path3802"
             style="fill:#ffccaa;stroke-width:0.26458332" />
          <ellipse
             ry="6.8035712"
             rx="7.5595236"
             cy="189.65477"
             cx="-78.619049"
             id="path3804"
             style="fill:#f9f9f9;stroke-width:0.26458332" />
          <ellipse
             ry="10.583333"
             rx="7.5595236"
             cy="186.63095"
             cx="-63.5"
             id="path3806"
             style="fill:#f9f9f9;stroke-width:0.26458332" />
          <circle
             r="6.0476193"
             cy="190.41071"
             cx="-49.136902"
             id="path3808"
             style="fill:#f9f9f9;stroke-width:0.26458332" />
          <ellipse
             ry="4.9136906"
             rx="13.229166"
             cy="190.03273"
             cx="-64.633926"
             id="path3814"
             style="fill:#f9f9f9;stroke-width:0.26458332" />
          <ellipse
             ry="3.0238097"
             rx="2.6458333"
             cy="201.75"
             cx="-71.4375"
             id="path3772"
             style="fill:#000000;stroke-width:0.26458332" />
          <ellipse
             ry="9.8273811"
             rx="4.5357141"
             cy="199.48213"
             cx="-56.69643"
             id="path3818"
             style="fill:#f9f9f9;stroke-width:0.26458332" />
          <ellipse
             ry="1.8898809"
             rx="1.1339285"
             cy="205.15178"
             cx="-85.044632"
             id="path3820"
             style="fill:#1a1a1a;stroke-width:0.26458332" />
        </g>
        <g
           id="g3800"
           transform="matrix(1,0,0,-1,74.083333,371.74996)">
          <rect
             y="93.648788"
             x="40.065472"
             height="31.75"
             width="12.095239"
             id="rect3770"
             style="fill:#000000;stroke-width:0.26458332" />
          <rect
             y="98.184502"
             x="40.065472"
             height="27.214285"
             width="12.095239"
             id="rect3786"
             style="fill:#ffccaa;stroke-width:0.26458332" />
        </g>
        <g
           id="g3796"
           transform="matrix(1,0,0,-1,34.77381,519.91669)">
          <rect
             y="242.57144"
             x="36.285713"
             height="32.505951"
             width="12.095239"
             id="rect3768"
             style="fill:#000000;stroke-width:0.26458332" />
          <rect
             y="246.3512"
             x="36.285713"
             height="28.726189"
             width="12.095239"
             id="rect3792"
             style="fill:#ffccaa;stroke-width:0.26458332" />
        </g>
        <circle
           style="fill:#f9f9f9;stroke-width:0.26458332"
           id="path3711"
           cx="60.476189"
           cy="191.92261"
           r="21.922617" />
        <ellipse
           style="fill:#f9f9f9;stroke-width:0.26458332"
           id="path3713"
           cx="85.04464"
           cy="184.3631"
           rx="21.544643"
           ry="21.922617" />
        <circle
           style="fill:#f9f9f9;stroke-width:0.26458332"
           id="path3723"
           cx="58.586311"
           cy="220.27084"
           r="17.008928" />
        <ellipse
           style="fill:#f9f9f9;stroke-width:0.26458332"
           id="path3727"
           cx="127.37797"
           cy="188.14285"
           rx="22.300594"
           ry="19.654762" />
        <ellipse
           style="fill:#f9f9f9;stroke-width:0.26458332"
           id="path3729"
           cx="147.7887"
           cy="194.56845"
           rx="15.497024"
           ry="17.764881" />
        <circle
           style="fill:#f9f9f9;stroke-width:0.26458332"
           id="path3731"
           cx="112.25893"
           cy="177.9375"
           r="10.205358" />
        <ellipse
           style="fill:#f9f9f9;stroke-width:0.26458332"
           id="path3733"
           cx="147.78871"
           cy="215.35713"
           rx="13.229166"
           ry="12.851191" />
        <ellipse
           style="fill:#f9f9f9;stroke-width:0.26458332"
           id="path3735"
           cx="125.48809"
           cy="172.64584"
           rx="12.095239"
           ry="12.473214" />
        <ellipse
           style="fill:#f9f9f9;stroke-width:0.26458332"
           id="path3739"
           cx="65.389877"
           cy="173.0238"
           rx="16.252975"
           ry="12.851191" />
        <ellipse
           style="fill:#f9f9f9;stroke-width:0.26458332"
           id="path3741"
           cx="111.12501"
           cy="170.37799"
           rx="16.630953"
           ry="17.008928" />
        <ellipse
           style="fill:#f9f9f9;stroke-width:0.26458332"
           id="path3743"
           cx="137.20537"
           cy="177.55954"
           rx="13.985119"
           ry="16.630953" />
        <ellipse
           style="fill:#f9f9f9;stroke-width:0.26458332"
           id="path3745"
           cx="88.068451"
           cy="164.70834"
           rx="14.741072"
           ry="15.875" />
        <ellipse
           style="fill:#f9f9f9;stroke-width:0.26458332"
           id="path3763"
           cx="104.32143"
           cy="204.39583"
           rx="49.136902"
           ry="19.276785" />
        <ellipse
           style="fill:#f9f9f9;stroke-width:0.26458332"
           id="path3717"
           cx="83.154762"
           cy="229.72021"
           rx="23.434523"
           ry="24.946428" />
        <ellipse
           style="fill:#f9f9f9;stroke-width:0.26458332"
           id="path3715"
           cx="120.19643"
           cy="221.02679"
           rx="30.994047"
           ry="30.616072" />
        <path
           style="fill:#f9f9f9;stroke-width:0.26458332"
           id="path3838"
           sodipodi:type="arc"
           sodipodi:cx="162.52977"
           sodipodi:cy="-209.43936"
           sodipodi:rx="11.339286"
           sodipodi:ry="14.363094"
           sodipodi:start="4.8469539"
           sodipodi:end="2.5567503"
           d="m 164.05104,-223.67261 a 11.339286,14.363094 0 0 1 9.75528,12.7245 11.339286,14.363094 0 0 1 -7.44122,15.02531 11.339286,14.363094 0 0 1 -13.29002,-5.58716 l 9.45469,-7.9294 z"
           transform="scale(1,-1)" />
      </g>
      <g
         id="g3934">
        <path
           sodipodi:type="spiral"
           style="fill:none;fill-rule:evenodd;stroke:#000000;stroke-width:0.26458332"
           id="path3877"
           sodipodi:cx="65.011902"
           sodipodi:cy="184.3631"
           sodipodi:expansion="1"
           sodipodi:revolution="3"
           sodipodi:radius="7.7830062"
           sodipodi:argument="-17.785858"
           sodipodi:t0="0"
           d="m 65.011902,184.3631 c 0.189511,0.34112 -0.366325,0.42375 -0.566964,0.31498 -0.54372,-0.29477 -0.424587,-1.06505 -0.063,-1.44891 0.646801,-0.68664 1.75561,-0.47193 2.330854,0.18899 0.844193,0.96992 0.523547,2.45658 -0.440972,3.2128 -1.285554,1.00791 -3.161383,0.57716 -4.094743,-0.69296 -1.174537,-1.59832 -0.631844,-3.86804 0.944941,-4.97669 1.909697,-1.34271 4.575757,-0.68715 5.858631,1.19693 1.511823,2.22031 0.742849,5.28413 -1.448909,6.74057 -2.53047,1.68153 -5.99294,0.79881 -7.62252,-1.70089 -1.851632,-2.84032 -0.854954,-6.70206 1.952877,-8.50446 3.149962,-2.02203 7.411403,-0.91124 9.386409,2.20486 2.192631,3.45945 0.967607,8.12091 -2.456845,10.26835" />
        <path
           sodipodi:type="spiral"
           style="fill:none;fill-rule:evenodd;stroke:#000000;stroke-width:0.26458332"
           id="path3879"
           sodipodi:cx="65.767853"
           sodipodi:cy="214.6012"
           sodipodi:expansion="1"
           sodipodi:revolution="3"
           sodipodi:radius="7.4452672"
           sodipodi:argument="-18.431332"
           sodipodi:t0="0"
           d="m 65.767853,214.6012 c 0.34112,0.15161 -0.03607,0.53462 -0.251984,0.56696 -0.585116,0.0876 -0.937352,-0.56952 -0.881945,-1.07093 0.09911,-0.89692 1.06997,-1.37093 1.889881,-1.19693 1.203253,0.25536 1.813762,1.57592 1.511905,2.70883 -0.402329,1.51 -2.083633,2.26033 -3.527778,1.82689 -1.817309,-0.54544 -2.708773,-2.59216 -2.141865,-4.34673 0.686602,-2.12501 3.101134,-3.1583 5.165674,-2.45684 2.43299,0.82664 3.608516,3.61038 2.771826,5.98462 -0.965991,2.74115 -4.119818,4.05918 -6.803571,3.0868 -3.049451,-1.10487 -4.510159,-4.62938 -3.401786,-7.62251 1.243427,-3.35785 5.139043,-4.96138 8.441468,-3.71677 3.666318,1.38175 5.412754,5.64877 4.031746,9.26042" />
        <path
           sodipodi:type="spiral"
           style="fill:none;fill-rule:evenodd;stroke:#000000;stroke-width:0.26458332"
           id="path3881"
           sodipodi:cx="86.934525"
           sodipodi:cy="199.48213"
           sodipodi:expansion="1"
           sodipodi:revolution="3"
           sodipodi:radius="3.7797618"
           sodipodi:argument="-17.92226"
           sodipodi:t0="0"
           d="m 86.934525,199.48213 c 0.113706,0.15161 -0.148268,0.22807 -0.251985,0.18899 -0.281067,-0.10592 -0.274615,-0.48439 -0.125991,-0.69296 0.265852,-0.37307 0.813515,-0.34299 1.133928,-0.063 0.47022,0.41091 0.414122,1.14736 -10e-7,1.5749 -0.55196,0.56984 -1.482928,0.48646 -2.015872,-0.063 -0.670657,-0.69143 -0.559437,-1.81931 0.125993,-2.45684 0.830146,-0.77214 2.156165,-0.63278 2.897817,0.18899 0.874011,0.96842 0.706359,2.4933 -0.251986,3.33879 -1.106446,0.97614 -2.830644,0.78009 -3.779761,-0.31499 -1.078448,-1.24429 -0.853933,-3.16811 0.377978,-4.22073 1.382018,-1.18088 3.505688,-0.92785 4.661706,0.44097 1.283399,1.51966 1.001832,3.84334 -0.503971,5.10268" />
        <path
           sodipodi:type="spiral"
           style="fill:none;fill-rule:evenodd;stroke:#000000;stroke-width:0.26458332"
           id="path3883"
           sodipodi:cx="86.178574"
           sodipodi:cy="229.72023"
           sodipodi:expansion="1"
           sodipodi:revolution="3"
           sodipodi:radius="5.7571616"
           sodipodi:argument="-18.444664"
           sodipodi:t0="0"
           d="m 86.178574,229.72023 c 0.265315,0.11371 -0.02238,0.41374 -0.188989,0.44097 -0.451505,0.0738 -0.730627,-0.43068 -0.692956,-0.81895 0.06739,-0.69451 0.813163,-1.07102 1.448909,-0.94494 0.932983,0.18504 1.41864,1.19979 1.196924,2.07887 -0.295512,1.17168 -1.587754,1.76916 -2.708829,1.44891 -1.410759,-0.403 -2.121135,-1.97632 -1.700892,-3.33879 0.50897,-1.65013 2.365224,-2.47396 3.96875,-1.95288 1.889699,0.61408 2.827309,2.75434 2.20486,4.59872 -0.718641,2.1294 -3.14358,3.18101 -5.228671,2.45684 -2.369213,-0.82285 -3.534961,-3.53292 -2.708828,-5.85863 0.926796,-2.60909 3.922339,-3.88909 6.488591,-2.96081 2.849027,1.03056 4.243354,4.3118 3.212797,7.11855" />
        <path
           sodipodi:type="spiral"
           style="fill:none;fill-rule:evenodd;stroke:#000000;stroke-width:0.26458332"
           id="path3887"
           sodipodi:cx="96.005951"
           sodipodi:cy="178.31548"
           sodipodi:expansion="1"
           sodipodi:revolution="3"
           sodipodi:radius="9.5621252"
           sodipodi:argument="-18.527805"
           sodipodi:t0="0"
           d="m 96.005951,178.31548 c 0.454827,0.1516 0.02003,0.68789 -0.251984,0.75595 -0.737141,0.18443 -1.26872,-0.61208 -1.259921,-1.25992 0.01574,-1.15883 1.198197,-1.8849 2.267857,-1.76389 1.56977,0.17758 2.513582,1.79018 2.267857,3.27579 -0.327512,1.98009 -2.383985,3.14726 -4.28373,2.77183 -2.390635,-0.47244 -3.783441,-2.97859 -3.275793,-5.29167 0.614829,-2.80145 3.573618,-4.42107 6.299603,-3.77976 3.21248,0.75575 5.05959,4.16892 4.28373,7.30754 -0.89576,3.62366 -4.764406,5.69872 -8.315476,4.7877 -4.034953,-1.03517 -6.338272,-5.36002 -5.291667,-9.32342 1.174133,-4.44633 5.955721,-6.97812 10.33135,-5.79563 4.857773,1.31279 7.618213,6.55149 6.299603,11.33929" />
        <path
           sodipodi:type="spiral"
           style="fill:none;fill-rule:evenodd;stroke:#000000;stroke-width:0.26458332"
           id="path3904"
           sodipodi:cx="103.56548"
           sodipodi:cy="214.60118"
           sodipodi:expansion="1"
           sodipodi:revolution="3"
           sodipodi:radius="5.9041767"
           sodipodi:argument="-18.154818"
           sodipodi:t0="0"
           d="m 103.56548,214.60118 c 0.22742,0.18951 -0.14326,0.40005 -0.31498,0.37798 -0.46535,-0.0598 -0.59179,-0.63741 -0.44097,-1.00794 0.26979,-0.66279 1.11306,-0.81422 1.70089,-0.50397 0.86267,0.45531 1.04252,1.59491 0.56697,2.39385 -0.63384,1.06486 -2.07893,1.27328 -3.08681,0.62996 -1.26831,-0.80955 -1.5053,-2.56396 -0.69295,-3.77976 0.98385,-1.4725 3.04957,-1.73805 4.47271,-0.75595 1.67714,1.15736 1.97126,3.53554 0.81895,5.16567 -1.33039,1.88206 -4.02174,2.20478 -5.85863,0.88195 -2.087184,-1.50309 -2.438501,-4.50812 -0.944939,-6.55159 1.675549,-2.29246 4.994619,-2.67239 7.244549,-1.00794 2.49784,1.84786 2.90638,5.48121 1.07093,7.9375" />
        <path
           sodipodi:type="spiral"
           style="fill:none;fill-rule:evenodd;stroke:#000000;stroke-width:0.26458332"
           id="path3912"
           sodipodi:cx="122.46428"
           sodipodi:cy="228.20833"
           sodipodi:expansion="1"
           sodipodi:revolution="3"
           sodipodi:radius="8.6191826"
           sodipodi:argument="-18.188513"
           sodipodi:t0="0"
           d="m 122.46428,228.20833 c 0.34112,0.26531 -0.18934,0.59072 -0.44097,0.56696 -0.6819,-0.0644 -0.89479,-0.90088 -0.69296,-1.44891 0.36103,-0.98028 1.58394,-1.2427 2.45685,-0.81894 1.28103,0.62187 1.59948,2.27573 0.94494,3.46478 -0.87241,1.58481 -2.97057,1.95997 -4.47272,1.07093 -1.89031,-1.11877 -2.32235,-3.66683 -1.19693,-5.48065 1.36304,-2.19679 4.3639,-2.68583 6.48859,-1.32292 2.50389,1.60613 3.04998,5.06146 1.44891,7.49653 -1.84849,2.81138 -5.75936,3.41459 -8.50446,1.5749 -3.11916,-2.09038 -3.77953,-6.4575 -1.70089,-9.5124 2.33191,-3.42715 7.1558,-4.1447 10.52033,-1.82689 3.73528,2.57321 4.51004,7.85424 1.95288,11.52827" />
        <path
           sodipodi:type="spiral"
           style="fill:none;fill-rule:evenodd;stroke:#000000;stroke-width:0.26458332"
           id="path3916"
           sodipodi:cx="149.29532"
           sodipodi:cy="199.2421"
           sodipodi:expansion="1"
           sodipodi:revolution="3"
           sodipodi:radius="5.9041767"
           sodipodi:argument="-17.973497"
           sodipodi:t0="0"
           d="m 149.29532,199.2421 c 0.18951,0.22741 -0.21305,0.36765 -0.37798,0.31498 -0.44694,-0.14275 -0.46715,-0.73368 -0.25198,-1.07094 0.38488,-0.60327 1.24164,-0.60015 1.76389,-0.18898 0.76641,0.6034 0.73782,1.75676 0.12599,2.45684 -0.81547,0.9331 -2.27445,0.87751 -3.1498,0.063 -1.10154,-1.02499 -1.01827,-2.79338 0,-3.84276 1.23326,-1.27095 3.31299,-1.15963 4.53571,0.063 1.44093,1.44082 1.30139,3.83305 -0.12599,5.22867 -1.64797,1.61129 -4.3534,1.44339 -5.92163,-0.18899 -1.78192,-1.85482 -1.58558,-4.87395 0.25199,-6.61459 2.06148,-1.95273 5.39464,-1.7279 7.30754,0.31499 2.12367,2.26799 1.87032,5.91545 -0.37798,8.00049"
           transform="matrix(1,0,0,1.0751623,-14.363093,-6.6600131)" />
        <path
           sodipodi:type="spiral"
           style="fill:none;fill-rule:evenodd;stroke:#000000;stroke-width:0.26458332"
           id="path3918"
           sodipodi:cx="123.22022"
           sodipodi:cy="185.875"
           sodipodi:expansion="1"
           sodipodi:revolution="3"
           sodipodi:radius="6.7614436"
           sodipodi:argument="-17.742407"
           sodipodi:t0="0"
           d="m 123.22022,185.875 c 0.15161,0.30322 -0.33393,0.35396 -0.50397,0.25198 -0.46078,-0.27635 -0.32831,-0.9404 0,-1.25992 0.58729,-0.57154 1.54155,-0.34334 2.01588,0.25199 0.69609,0.87367 0.3617,2.15188 -0.50397,2.77182 -1.1538,0.82629 -2.76562,0.38164 -3.52778,-0.75595 -0.9591,-1.43154 -0.40243,-3.38101 1.00794,-4.28373 1.70814,-1.09331 3.99734,-0.42372 5.03968,1.25992 1.22836,1.98412 0.44533,4.61426 -1.51191,5.79564 -2.25971,1.36394 -5.23156,0.46715 -6.55158,-1.76389 -1.4999,-2.53506 -0.48913,-5.84915 2.01587,-7.30754 2.81024,-1.6361 6.46693,-0.51121 8.06349,2.26786 1.7725,3.08528 0.53336,7.08485 -2.51984,8.81944" />
        <path
           sodipodi:type="spiral"
           style="fill:none;fill-rule:evenodd;stroke:#000000;stroke-width:0.26458332"
           id="path3922"
           sodipodi:cx="46.869041"
           sodipodi:cy="200.2381"
           sodipodi:expansion="1"
           sodipodi:revolution="3"
           sodipodi:radius="6.7614436"
           sodipodi:argument="-17.742407"
           sodipodi:t0="0"
           d="m 46.869041,200.2381 c 0.151609,0.30322 -0.333933,0.35396 -0.503968,0.25198 -0.460784,-0.27635 -0.328318,-0.9404 10e-7,-1.25992 0.587285,-0.57154 1.541545,-0.34335 2.015872,0.25199 0.696095,0.87367 0.361698,2.15188 -0.503969,2.77182 -1.153798,0.82629 -2.765621,0.38164 -3.527777,-0.75595 -0.959096,-1.43154 -0.402428,-3.38101 1.007938,-4.28373 1.708142,-1.09331 3.997342,-0.42372 5.039682,1.25992 1.228362,1.98412 0.445334,4.61426 -1.511907,5.79563 -2.259712,1.36395 -5.231563,0.46716 -6.551587,-1.76389 -1.499894,-2.53505 -0.489125,-5.84914 2.015876,-7.30754 2.810233,-1.63609 6.466924,-0.5112 8.063491,2.26786 1.772492,3.08529 0.533358,7.08486 -2.519844,8.81945" />
      </g>
    </g>
  </g>
</svg>
