<?xml version="1.0" encoding="UTF-8" standalone="no"?>
<!-- Created with Inkscape (http://www.inkscape.org/) -->

<svg
   xmlns:dc="http://purl.org/dc/elements/1.1/"
   xmlns:cc="http://creativecommons.org/ns#"
   xmlns:rdf="http://www.w3.org/1999/02/22-rdf-syntax-ns#"
   xmlns:svg="http://www.w3.org/2000/svg"
   xmlns="http://www.w3.org/2000/svg"
   xmlns:sodipodi="http://sodipodi.sourceforge.net/DTD/sodipodi-0.dtd"
   xmlns:inkscape="http://www.inkscape.org/namespaces/inkscape"
   width="125.9023mm"
   height="122.79826mm"
   viewBox="0 0 125.9023 122.79826"
   version="1.1"
   id="svg8"
   inkscape:version="0.92.1 r15371"
   sodipodi:docname="sheepS.svg">
  <defs
     id="defs2" />
  <sodipodi:namedview
     id="base"
     pagecolor="#ffffff"
     bordercolor="#666666"
     borderopacity="1.0"
     inkscape:pageopacity="0.0"
     inkscape:pageshadow="2"
     inkscape:zoom="0.7"
     inkscape:cx="283.4477"
     inkscape:cy="169.27137"
     inkscape:document-units="mm"
     inkscape:current-layer="layer1"
     showgrid="false"
     inkscape:window-width="1280"
     inkscape:window-height="657"
     inkscape:window-x="-8"
     inkscape:window-y="-8"
     inkscape:window-maximized="1" />
  <metadata
     id="metadata5">
    <rdf:RDF>
      <cc:Work
         rdf:about="">
        <dc:format>image/svg+xml</dc:format>
        <dc:type
           rdf:resource="http://purl.org/dc/dcmitype/StillImage" />
        <dc:title></dc:title>
      </cc:Work>
    </rdf:RDF>
  </metadata>
  <g
     inkscape:label="Layer 1"
     inkscape:groupmode="layer"
     id="layer1"
     transform="translate(-30.053054,-33.796178)">
    <path
       style="fill:#ececec;stroke-width:0.99999994"
       d="m 372.85742,128.23438 c -45.50727,-5.21917 -95.20708,31.01632 -113.21094,77.88867 -68.81701,-6.13364 -129.36299,11.58546 -143.93164,79.2539 -10.70899,49.48799 20.74729,119.17243 55.06446,141.56836 -7.98238,16.43041 -9.0515,107.81485 27.79297,135.57394 43.48253,32.76029 97.61183,49.61614 162.84012,-12.60156 55.01805,60.2629 135.20109,23.19897 177.15932,-18.82673 27.92911,-27.97403 26.57585,-97.60669 12.34235,-117.94448 30.00815,-22.95161 50.63813,-88.88004 30.51535,-127.77036 C 564.4702,252.59987 543.93085,246.52751 478.67216,244.16909 469.58848,168.6321 424.83792,134.19595 372.85742,128.23438 Z"
       transform="scale(0.26458333)"
       id="path10"
       inkscape:connector-curvature="0"
       sodipodi:nodetypes="acccacacaca" />
    <circle
       style="fill:#ffb380;stroke-width:0.29633331"
       id="path56"
       cx="93.931015"
       cy="96.496231"
       r="37.041668" />
    <path
       style="fill:#e6e6e6;stroke-width:0.99999994"
       d="M 157.14258 56.976562 A 77.14286 47.142857 0 0 0 80 104.11914 A 77.14286 47.142857 0 0 0 86.583984 123.03516 A 44.285712 44.285712 0 0 0 78.572266 148.4043 A 44.285712 44.285712 0 0 0 122.85742 192.69141 A 44.285712 44.285712 0 0 0 167.02148 150.81641 A 77.14286 47.142857 0 0 0 222.8125 128.74414 A 74.285716 37.857142 0 0 0 268.3418 151.95117 A 27.857143 19.285715 0 0 0 262.85742 163.4043 A 27.857143 19.285715 0 0 0 290.71484 182.69141 A 27.857143 19.285715 0 0 0 318.57227 163.4043 A 27.857143 19.285715 0 0 0 313.72852 152.57031 A 74.285716 37.857142 0 0 0 367.14258 116.26172 A 74.285716 37.857142 0 0 0 292.85742 78.404297 A 74.285716 37.857142 0 0 0 232.48438 94.257812 A 77.14286 47.142857 0 0 0 157.14258 56.976562 z "
       transform="matrix(0.26458333,0,0,0.26458333,30.053054,33.796178)"
       id="path60" />
    <ellipse
       style="fill:#666666;stroke-width:0.26458332"
       id="path69"
       cx="81.268829"
       cy="94.417351"
       rx="6.2366071"
       ry="5.8586307" />
    <ellipse
       style="fill:#666666;stroke-width:0.26458332"
       id="path69-3"
       cx="106.40424"
       cy="94.984322"
       rx="6.2366071"
       ry="5.8586307" />
  </g>
</svg>
