<?xml version="1.0" encoding="UTF-8" standalone="no"?>
<!-- Created with Inkscape (http://www.inkscape.org/) -->

<svg
   xmlns:dc="http://purl.org/dc/elements/1.1/"
   xmlns:cc="http://creativecommons.org/ns#"
   xmlns:rdf="http://www.w3.org/1999/02/22-rdf-syntax-ns#"
   xmlns:svg="http://www.w3.org/2000/svg"
   xmlns="http://www.w3.org/2000/svg"
   xmlns:sodipodi="http://sodipodi.sourceforge.net/DTD/sodipodi-0.dtd"
   xmlns:inkscape="http://www.inkscape.org/namespaces/inkscape"
   width="150.79659mm"
   height="100.15571mm"
   viewBox="0 0 150.79658 100.15569"
   version="1.1"
   id="svg4075"
   inkscape:version="0.92.1 r15371"
   sodipodi:docname="wolfR2.svg">
  <defs
     id="defs4069" />
  <sodipodi:namedview
     id="base"
     pagecolor="#ffffff"
     bordercolor="#666666"
     borderopacity="1.0"
     inkscape:pageopacity="0.0"
     inkscape:pageshadow="2"
     inkscape:zoom="0.7"
     inkscape:cx="-17.511181"
     inkscape:cy="108.31577"
     inkscape:document-units="mm"
     inkscape:current-layer="layer1"
     showgrid="false"
     inkscape:window-width="1920"
     inkscape:window-height="1017"
     inkscape:window-x="-8"
     inkscape:window-y="-8"
     inkscape:window-maximized="1" />
  <metadata
     id="metadata4072">
    <rdf:RDF>
      <cc:Work
         rdf:about="">
        <dc:format>image/svg+xml</dc:format>
        <dc:type
           rdf:resource="http://purl.org/dc/dcmitype/StillImage" />
        <dc:title></dc:title>
      </cc:Work>
    </rdf:RDF>
  </metadata>
  <g
     inkscape:label="Layer 1"
     inkscape:groupmode="layer"
     id="layer1"
     transform="translate(-11.7298,-145.84323)"
     style="display:inline">
    <ellipse
       style="opacity:1;fill:#808080;fill-opacity:1;stroke:none;stroke-width:0.21447003;stroke-opacity:1"
       id="path4508"
       cx="92.241142"
       cy="195.83847"
       rx="39.154987"
       ry="17.238884" />
    <ellipse
       style="opacity:1;fill:#808080;fill-opacity:1;stroke:none;stroke-width:0.30473414;stroke-opacity:1"
       id="path4510"
       cx="109.74728"
       cy="217.35367"
       rx="6.6817379"
       ry="13.898015" />
    <ellipse
       style="opacity:1;fill:#808080;fill-opacity:1;stroke:none;stroke-width:0.26458332;stroke-opacity:1"
       id="path4512"
       ry="14.967093"
       rx="5.3453903"
       cy="238.27882"
       cx="54.835625"
       transform="rotate(-16.706222)"
       inkscape:transform-center-x="-7.261447"
       inkscape:transform-center-y="14.347791" />
    <ellipse
       style="display:inline;opacity:1;fill:#808080;fill-opacity:1;stroke:none;stroke-width:0.2585755;stroke-opacity:1"
       id="path4510-9"
       cx="133.08128"
       cy="178.50098"
       rx="4.8108511"
       ry="13.898015"
       transform="rotate(18.475101)" />
    <ellipse
       style="display:inline;opacity:1;fill:#808080;fill-opacity:1;stroke:none;stroke-width:0.2526837;stroke-opacity:1"
       id="path4510-5"
       cx="142.15912"
       cy="151.96735"
       rx="4.6443677"
       ry="13.74763"
       transform="matrix(0.86343947,0.50445246,-0.4126586,0.91088577,0,0)" />
    <ellipse
       style="display:inline;opacity:1;fill:#808080;fill-opacity:1;stroke:none;stroke-width:0.14799747;stroke-opacity:1"
       id="path4510-5-0"
       cx="-27.403471"
       cy="241.1799"
       rx="2.3963432"
       ry="9.1402807"
       transform="matrix(0.97213673,-0.23441453,0.39705735,0.9177938,0,0)" />
    <ellipse
       style="display:inline;opacity:1;fill:#808080;fill-opacity:1;stroke:none;stroke-width:0.1655248;stroke-opacity:1"
       id="path4510-5-0-4"
       cx="-56.271988"
       cy="245.3558"
       rx="2.8900039"
       ry="9.480423"
       transform="matrix(0.98092776,-0.19437264,0.46584788,0.88486482,0,0)" />
    <ellipse
       style="display:inline;opacity:1;fill:#808080;fill-opacity:1;stroke:none;stroke-width:0.21807992;stroke-opacity:1"
       id="path4510-9-4"
       cx="130.60323"
       cy="214.42589"
       rx="3.7937491"
       ry="12.536108"
       transform="matrix(0.99200439,0.12620337,-0.09613337,0.99536846,0,0)" />
    <ellipse
       style="display:inline;opacity:1;fill:#808080;fill-opacity:1;stroke:none;stroke-width:0.21807992;stroke-opacity:1"
       id="path4510-9-4-7"
       cx="144.79558"
       cy="210.74686"
       rx="3.7937491"
       ry="12.536108"
       transform="matrix(0.99200439,0.12620337,-0.09613337,0.99536846,0,0)" />
    <ellipse
       style="display:inline;opacity:1;fill:#808080;fill-opacity:1;stroke:none;stroke-width:0.11848056;stroke-opacity:1"
       id="path4510-9-4-7-4"
       cx="-217.47037"
       cy="93.949738"
       rx="2.8141818"
       ry="4.9881783"
       transform="matrix(0.12272821,-0.99244032,0.97715048,0.21254866,0,0)" />
    <ellipse
       style="display:inline;opacity:1;fill:#808080;fill-opacity:1;stroke:none;stroke-width:0.11848056;stroke-opacity:1"
       id="path4510-9-4-7-4-4"
       cx="-214.92635"
       cy="104.57099"
       rx="2.8141818"
       ry="4.9881783"
       transform="matrix(0.12272821,-0.99244032,0.97715048,0.21254866,0,0)" />
    <ellipse
       style="display:inline;opacity:1;fill:#808080;fill-opacity:1;stroke:none;stroke-width:0.13626117;stroke-opacity:1"
       id="path4510-9-4-7-4-6"
       cx="-222.03629"
       cy="147.94612"
       rx="2.8303289"
       ry="6.560051"
       transform="matrix(0.16207499,-0.98677844,0.98685319,0.16161926,0,0)" />
    <ellipse
       style="display:inline;opacity:1;fill:#808080;fill-opacity:1;stroke:none;stroke-width:0.13626117;stroke-opacity:1"
       id="path4510-9-4-7-4-6-8"
       cx="-217.33447"
       cy="163.42372"
       rx="2.8303289"
       ry="6.560051"
       transform="matrix(0.16207499,-0.98677844,0.98685319,0.16161926,0,0)" />
    <ellipse
       style="display:inline;opacity:1;fill:#808080;fill-opacity:1;stroke:none;stroke-width:0.13166536;stroke-opacity:1"
       id="path4508-1"
       cx="-139.69812"
       cy="230.48923"
       rx="24.474514"
       ry="10.394223"
       transform="matrix(0.64660099,-0.7628284,0.93066731,0.36586659,0,0)" />
    <ellipse
       style="display:inline;opacity:1;fill:#808080;fill-opacity:1;stroke:none;stroke-width:0.12590079;stroke-opacity:1"
       id="path4508-2"
       transform="matrix(0.9974587,-0.07124704,0,1,0,0)"
       ry="15.501632"
       rx="15.005226"
       cy="181.74239"
       cx="137.89375" />
    <path
       style="display:inline;opacity:1;fill:#808080;fill-opacity:1;stroke:none;stroke-width:0.12574071;stroke-opacity:1"
       id="path4508-2-5"
       ry="15.501632"
       rx="15.005226"
       cy="179.79514"
       cx="140.57326"
       d=""
       inkscape:connector-curvature="0" />
    <path
       style="display:inline;opacity:1;fill:#808080;fill-opacity:1;stroke:none;stroke-width:0.09056305;stroke-opacity:1"
       id="path4508-2-6"
       transform="matrix(0.99931519,-0.03700216,0,1,0,0)"
       sodipodi:type="arc"
       sodipodi:cx="148.60313"
       sodipodi:cy="181.69281"
       sodipodi:rx="14.97735"
       sodipodi:ry="8.0358181"
       sodipodi:start="0.42448148"
       sodipodi:end="5.9264939"
       d="m 162.25128,185.00235 a 14.97735,8.0358181 0 0 1 -17.05081,4.51615 14.97735,8.0358181 0 0 1 -11.56608,-8.09801 14.97735,8.0358181 0 0 1 12.56191,-7.65906 14.97735,8.0358181 0 0 1 16.44147,5.12547 l -14.03464,2.80591 z" />
    <rect
       style="opacity:1;fill:#808080;fill-opacity:1;stroke:none;stroke-width:0.0713519;stroke-opacity:1"
       id="rect4726"
       width="21.80479"
       height="21.332914"
       x="-37.524975"
       y="180.46352"
       transform="matrix(-0.10529987,-0.99444051,0.6923797,0.72153333,0,0)" />
    <circle
       style="opacity:1;fill:#000000;fill-opacity:1;stroke:none;stroke-width:0.36747685;stroke-opacity:1"
       id="path4730"
       cx="143.82416"
       cy="169.64606"
       r="3.3408689" />
    <path
       style="fill:#808080;stroke:none;stroke-width:0.26458332px;stroke-linecap:butt;stroke-linejoin:miter;stroke-opacity:1"
       d="m 41.58992,187.38881 c -15.84629,-1.76792 -29.86012,6.4256 -29.86012,6.4256 0,0 11.94991,-2.00313 29.18245,0.29413 17.23253,2.29725 23.31241,9.77359 26.75802,4.43056 3.44562,-5.34302 -10.23407,-9.38237 -26.08035,-11.15029 z"
       id="path4797"
       inkscape:connector-curvature="0"
       sodipodi:nodetypes="zczzz" />
  </g>
</svg>
