<?xml version="1.0" encoding="UTF-8" standalone="no"?>
<!-- Created with Inkscape (http://www.inkscape.org/) -->

<svg
   xmlns:dc="http://purl.org/dc/elements/1.1/"
   xmlns:cc="http://creativecommons.org/ns#"
   xmlns:rdf="http://www.w3.org/1999/02/22-rdf-syntax-ns#"
   xmlns:svg="http://www.w3.org/2000/svg"
   xmlns="http://www.w3.org/2000/svg"
   xmlns:sodipodi="http://sodipodi.sourceforge.net/DTD/sodipodi-0.dtd"
   xmlns:inkscape="http://www.inkscape.org/namespaces/inkscape"
   width="150.7966mm"
   height="100.15572mm"
   viewBox="0 0 150.7966 100.15571"
   version="1.1"
   id="svg4075"
   inkscape:version="0.92.1 r15371"
   sodipodi:docname="wolfL2.svg">
  <defs
     id="defs4069" />
  <sodipodi:namedview
     id="base"
     pagecolor="#ffffff"
     bordercolor="#666666"
     borderopacity="1.0"
     inkscape:pageopacity="0.0"
     inkscape:pageshadow="2"
     inkscape:zoom="0.7"
     inkscape:cx="214.63168"
     inkscape:cy="108.31579"
     inkscape:document-units="mm"
     inkscape:current-layer="layer1"
     showgrid="false"
     inkscape:window-width="1920"
     inkscape:window-height="1017"
     inkscape:window-x="-8"
     inkscape:window-y="-8"
     inkscape:window-maximized="1" />
  <metadata
     id="metadata4072">
    <rdf:RDF>
      <cc:Work
         rdf:about="">
        <dc:format>image/svg+xml</dc:format>
        <dc:type
           rdf:resource="http://purl.org/dc/dcmitype/StillImage" />
        <dc:title></dc:title>
      </cc:Work>
    </rdf:RDF>
  </metadata>
  <g
     inkscape:label="Layer 1"
     inkscape:groupmode="layer"
     id="layer1"
     transform="translate(-11.729799,-145.84322)"
     style="display:inline">
    <ellipse
       style="opacity:1;fill:#808080;fill-opacity:1;stroke:none;stroke-width:0.21447003;stroke-opacity:1"
       id="path4508"
       cx="-82.015045"
       cy="195.83847"
       rx="39.154987"
       ry="17.238884"
       transform="scale(-1,1)" />
    <ellipse
       style="opacity:1;fill:#808080;fill-opacity:1;stroke:none;stroke-width:0.30473414;stroke-opacity:1"
       id="path4510"
       cx="-64.508904"
       cy="217.35367"
       rx="6.6817379"
       ry="13.898015"
       transform="scale(-1,1)" />
    <ellipse
       style="opacity:1;fill:#808080;fill-opacity:1;stroke:none;stroke-width:0.26458332;stroke-opacity:1"
       id="path4512"
       ry="14.967093"
       rx="5.3453903"
       cy="188.18636"
       cx="-112.06544"
       transform="matrix(-0.95779128,-0.28746453,-0.28746453,0.95779128,0,0)"
       inkscape:transform-center-x="7.2614465"
       inkscape:transform-center-y="14.347796" />
    <ellipse
       style="display:inline;opacity:1;fill:#808080;fill-opacity:1;stroke:none;stroke-width:0.2585755;stroke-opacity:1"
       id="path4510-9"
       cx="-32.193996"
       cy="233.72145"
       rx="4.8108511"
       ry="13.898015"
       transform="matrix(-0.94846146,0.31689251,0.31689251,0.94846146,0,0)" />
    <ellipse
       style="display:inline;opacity:1;fill:#808080;fill-opacity:1;stroke:none;stroke-width:0.2526837;stroke-opacity:1"
       id="path4510-5"
       cx="-17.420301"
       cy="240.34311"
       rx="4.6443677"
       ry="13.74763"
       transform="matrix(-0.86343947,0.50445246,0.4126586,0.91088577,0,0)" />
    <ellipse
       style="display:inline;opacity:1;fill:#808080;fill-opacity:1;stroke:none;stroke-width:0.14799747;stroke-opacity:1"
       id="path4510-5-0"
       cx="-189.72127"
       cy="199.72217"
       rx="2.3963432"
       ry="9.1402807"
       transform="matrix(-0.97213673,-0.23441453,-0.39705735,0.9177938,0,0)" />
    <ellipse
       style="display:inline;opacity:1;fill:#808080;fill-opacity:1;stroke:none;stroke-width:0.1655248;stroke-opacity:1"
       id="path4510-5-0-4"
       cx="-217.1351"
       cy="210.02002"
       rx="2.8900039"
       ry="9.480423"
       transform="matrix(-0.98092776,-0.19437264,-0.46584788,0.88486482,0,0)" />
    <ellipse
       style="display:inline;opacity:1;fill:#808080;fill-opacity:1;stroke:none;stroke-width:0.21807992;stroke-opacity:1"
       id="path4510-9-4"
       cx="-42.925327"
       cy="236.42767"
       rx="3.7937491"
       ry="12.536108"
       transform="matrix(-0.99200439,0.12620337,0.09613337,0.99536846,0,0)" />
    <ellipse
       style="display:inline;opacity:1;fill:#808080;fill-opacity:1;stroke:none;stroke-width:0.21807992;stroke-opacity:1"
       id="path4510-9-4-7"
       cx="-28.732973"
       cy="232.74864"
       rx="3.7937491"
       ry="12.536108"
       transform="matrix(-0.99200439,0.12620337,0.09613337,0.99536846,0,0)" />
    <ellipse
       style="display:inline;opacity:1;fill:#808080;fill-opacity:1;stroke:none;stroke-width:0.11848056;stroke-opacity:1"
       id="path4510-9-4-7-4"
       cx="-254.66266"
       cy="-79.709946"
       rx="2.8141818"
       ry="4.9881783"
       transform="matrix(-0.12272821,-0.99244032,-0.97715048,0.21254866,0,0)" />
    <ellipse
       style="display:inline;opacity:1;fill:#808080;fill-opacity:1;stroke:none;stroke-width:0.11848056;stroke-opacity:1"
       id="path4510-9-4-7-4-4"
       cx="-252.11864"
       cy="-69.088692"
       rx="2.8141818"
       ry="4.9881783"
       transform="matrix(-0.12272821,-0.99244032,-0.97715048,0.21254866,0,0)" />
    <ellipse
       style="display:inline;opacity:1;fill:#808080;fill-opacity:1;stroke:none;stroke-width:0.13626117;stroke-opacity:1"
       id="path4510-9-4-7-4-6"
       cx="-250.19945"
       cy="-24.006151"
       rx="2.8303289"
       ry="6.560051"
       transform="matrix(-0.16207499,-0.98677844,-0.98685319,0.16161926,0,0)" />
    <ellipse
       style="display:inline;opacity:1;fill:#808080;fill-opacity:1;stroke:none;stroke-width:0.13626117;stroke-opacity:1"
       id="path4510-9-4-7-4-6-8"
       cx="-245.49763"
       cy="-8.5285501"
       rx="2.8303289"
       ry="6.560051"
       transform="matrix(-0.16207499,-0.98677844,-0.98685319,0.16161926,0,0)" />
    <ellipse
       style="display:inline;opacity:1;fill:#808080;fill-opacity:1;stroke:none;stroke-width:0.13166536;stroke-opacity:1"
       id="path4508-1"
       cx="-207.05565"
       cy="90.049408"
       rx="24.474514"
       ry="10.394223"
       transform="matrix(-0.64660099,-0.7628284,-0.93066731,0.36586659,0,0)" />
    <ellipse
       style="display:inline;opacity:1;fill:#808080;fill-opacity:1;stroke:none;stroke-width:0.12590079;stroke-opacity:1"
       id="path4508-2"
       transform="matrix(-0.9974587,-0.07124704,0,1,0,0)"
       ry="15.501632"
       rx="15.005226"
       cy="169.29552"
       cx="-36.806404" />
    <path
       style="display:inline;opacity:1;fill:#808080;fill-opacity:1;stroke:none;stroke-width:0.12574071;stroke-opacity:1"
       id="path4508-2-5"
       ry="15.501632"
       rx="15.005226"
       cy="179.79514"
       cx="140.57326"
       d=""
       inkscape:connector-curvature="0" />
    <path
       style="display:inline;opacity:1;fill:#808080;fill-opacity:1;stroke:none;stroke-width:0.09056305;stroke-opacity:1"
       id="path4508-2-6"
       transform="matrix(-0.99931519,-0.03700216,0,1,0,0)"
       sodipodi:type="arc"
       sodipodi:cx="-25.772472"
       sodipodi:cy="175.24054"
       sodipodi:rx="14.97735"
       sodipodi:ry="8.0358181"
       sodipodi:start="0.42448148"
       sodipodi:end="5.9264939"
       d="m -12.124326,178.55008 a 14.97735,8.0358181 0 0 1 -17.050807,4.51615 14.97735,8.0358181 0 0 1 -11.566087,-8.09801 14.97735,8.0358181 0 0 1 12.561912,-7.65906 14.97735,8.0358181 0 0 1 16.44147,5.12547 l -14.034634,2.80591 z" />
    <rect
       style="opacity:1;fill:#808080;fill-opacity:1;stroke:none;stroke-width:0.0713519;stroke-opacity:1"
       id="rect4726"
       width="21.80479"
       height="21.332914"
       x="-242.78336"
       y="-102.43021"
       transform="matrix(0.10529987,-0.99444051,-0.6923797,0.72153333,0,0)" />
    <circle
       style="opacity:1;fill:#000000;fill-opacity:1;stroke:none;stroke-width:0.36747685;stroke-opacity:1"
       id="path4730"
       cx="-30.432034"
       cy="169.64606"
       r="3.3408689"
       transform="scale(-1,1)" />
    <path
       style="fill:#808080;stroke:none;stroke-width:0.26458332px;stroke-linecap:butt;stroke-linejoin:miter;stroke-opacity:1"
       d="m 132.66627,187.38881 c 15.84629,-1.76792 29.86012,6.4256 29.86012,6.4256 0,0 -11.94991,-2.00313 -29.18245,0.29413 -17.23253,2.29725 -23.31241,9.77359 -26.75802,4.43056 -3.44562,-5.34302 10.23407,-9.38237 26.08035,-11.15029 z"
       id="path4797"
       inkscape:connector-curvature="0"
       sodipodi:nodetypes="zczzz" />
  </g>
</svg>
